<svg version="1.1" id="Layer_1" xmlns="http://www.w3.org/2000/svg" xmlns:xlink="http://www.w3.org/1999/xlink" x="0px" y="0px" viewBox="0 0 512 512" style="enable-background:new 0 0 512 512;" xml:space="preserve">
<g>
<path style="fill:#B8BDC1;" d="M441.379,176.552H70.621c-9.754,0-17.655-7.901-17.655-17.655v-35.31
		c0-9.754,7.901-17.655,17.655-17.655h370.759c9.754,0,17.655,7.901,17.655,17.655v35.31
		C459.034,168.651,451.134,176.552,441.379,176.552" id="id_101"></path>
<path style="fill:#E6E7E8;" d="M76.506,176.552l38.312,319.258c0.768,9.154,8.413,16.19,17.593,16.19h247.172
		c9.181,0,16.834-7.036,17.593-16.19l38.321-319.258H76.506z" id="id_102"></path>
<g>
<polygon style="fill: rgb(5, 216, 240);" points="238.121,105.931 228.781,52.966 79.542,81.682 83.823,105.931 		" id="id_103"></polygon>
<polygon style="fill: rgb(216, 240, 5);" points="416.338,105.931 423.727,64.044 308.968,45.647 298.34,105.931 		" id="id_104"></polygon>
</g>
<polygon style="fill: rgb(44, 150, 171);" points="344.276,0 167.23,15.069 172.42,63.815 228.785,52.966 238.124,105.931 298.337,105.931 
		308.966,45.647 349.775,52.189 	" id="id_105"></polygon>
<g>
<path style="fill:#B8BDC1;" d="M132.414,512h247.172c9.181,0,16.834-7.036,17.593-16.19l4.785-54.431H110.036l4.785,54.431
			C115.58,504.964,123.233,512,132.414,512" id="id_106"></path>
<path style="fill:#B8BDC1;" d="M256,397.241c-4.873,0-8.828-3.946-8.828-8.828V229.517c0-4.882,3.955-8.828,8.828-8.828
			s8.828,3.946,8.828,8.828v158.897C264.828,393.295,260.873,397.241,256,397.241" id="id_107"></path>
<path style="fill:#B8BDC1;" d="M174.638,396.939c-4.529,0-8.386-3.469-8.783-8.06l-13.842-158.296
			c-0.433-4.855,3.16-9.137,8.024-9.56c4.864-0.45,9.137,3.178,9.56,8.024l13.842,158.296c0.424,4.855-3.169,9.137-8.024,9.56
			C175.159,396.931,174.894,396.939,174.638,396.939" id="id_108"></path>
<path style="fill:#B8BDC1;" d="M337.362,396.939c-0.256,0-0.521-0.009-0.777-0.035c-4.855-0.424-8.448-4.705-8.024-9.56
			l13.842-158.296c0.424-4.846,4.714-8.474,9.56-8.024c4.864,0.424,8.457,4.705,8.024,9.56L346.146,388.88
			C345.748,393.47,341.891,396.939,337.362,396.939" id="id_109"></path>
</g>
</g>
<g>
</g>
<g>
</g>
<g>
</g>
<g>
</g>
<g>
</g>
<g>
</g>
<g>
</g>
<g>
</g>
<g>
</g>
<g>
</g>
<g>
</g>
<g>
</g>
<g>
</g>
<g>
</g>
<g>
</g>
</svg>